<svg version="1.1" id="Layer_1" xmlns="http://www.w3.org/2000/svg" xmlns:xlink="http://www.w3.org/1999/xlink" x="0px" y="0px"
	 width="100%" viewBox="0 0 1099 142" enable-background="new 0 0 1099 142" xml:space="preserve">
<path fill="#FFFFFF" opacity="1.000000" stroke="none" 
	d="
M830.000000,143.000000 
	C553.333313,143.000000 277.166656,143.000000 1.000000,143.000000 
	C1.000000,95.666664 1.000000,48.333332 1.000000,1.000000 
	C367.333344,1.000000 733.666687,1.000000 1100.000000,1.000000 
	C1100.000000,48.333332 1100.000000,95.666664 1100.000000,143.000000 
	C1010.166687,143.000000 920.333313,143.000000 830.000000,143.000000 
M151.048492,69.955963 
	C151.048492,69.955963 151.161606,69.884003 150.961136,69.192680 
	C150.024506,67.439178 149.087875,65.685677 148.031509,63.289997 
	C148.005341,62.855618 147.979156,62.421242 148.280075,61.518471 
	C147.902939,60.324551 147.525787,59.130630 147.032410,57.037220 
	C147.074860,53.711521 147.117294,50.385818 147.716766,46.854767 
	C147.790649,45.575516 147.864532,44.296265 148.016556,42.364872 
	C148.063293,41.931057 148.110031,41.497242 148.827942,40.872711 
	C149.622665,38.943466 150.417389,37.014217 151.764359,34.851986 
	C152.529205,33.953785 153.294052,33.055588 154.979767,32.111591 
	C163.391373,30.252150 164.295410,30.718964 168.742111,37.712944 
	C169.412872,38.767941 171.356567,39.489502 172.687271,39.454250 
	C173.383896,39.435791 174.525864,37.477184 174.616776,36.327583 
	C175.309158,27.572990 175.020065,27.295296 166.360306,26.179436 
	C154.251770,24.619181 146.305801,28.073507 141.577454,37.507427 
	C137.962631,44.719681 137.744980,52.483021 138.889832,60.378075 
	C140.999130,74.923843 151.502563,81.543236 165.548203,77.192200 
	C166.816544,76.799301 168.533951,77.112442 169.813690,77.646645 
	C172.994308,78.974350 174.868683,77.986671 174.989349,74.510620 
	C175.075851,72.018692 174.884903,69.514008 175.035309,67.028168 
	C175.254913,63.398560 173.715302,59.219093 178.020935,56.660053 
	C178.189270,56.560009 177.255249,53.563347 176.752518,53.537811 
	C171.873734,53.290001 166.977325,53.388916 160.746399,53.388916 
	C162.157288,55.578686 162.563446,56.840057 163.428650,57.446526 
	C168.048325,60.684658 166.336502,65.313271 165.603333,69.231819 
	C164.904175,72.968506 161.197769,73.166969 157.880264,72.966438 
	C156.924622,72.908676 155.960800,72.986557 154.607178,72.909035 
	C154.607178,72.909035 154.202835,72.917084 153.955551,72.329498 
	C153.010178,71.500404 152.064819,70.671303 151.048492,69.955963 
M990.500000,6.000914 
	C665.183838,6.000914 339.867615,6.000888 14.551445,6.001623 
	C12.884974,6.001627 11.194407,5.851446 9.563636,6.095615 
	C8.891250,6.196290 8.347346,7.155080 7.745004,7.723571 
	C8.331878,8.141919 8.874214,8.808998 9.515438,8.923816 
	C10.646843,9.126406 11.838545,8.998238 13.005004,8.998240 
	C370.319458,8.999103 727.633911,8.999100 1084.948364,8.998377 
	C1086.114868,8.998375 1087.333130,9.189876 1088.429199,8.909091 
	C1089.131104,8.729249 1089.652588,7.844982 1090.254883,7.276519 
	C1089.668091,6.858147 1089.125732,6.191009 1088.484619,6.076187 
	C1087.353271,5.873568 1086.161499,6.001820 1084.995117,6.001780 
	C1053.830078,6.000694 1022.665039,6.000916 990.500000,6.000914 
M233.500000,130.000931 
	C160.337158,130.000931 87.174316,129.990433 14.011538,130.054169 
	C11.922705,130.055984 9.834559,130.846970 7.746093,131.269974 
	C9.845703,131.846329 11.945209,132.927261 14.044939,132.927704 
	C370.692749,133.002045 727.340576,133.001236 1083.988403,132.946686 
	C1086.076904,132.946365 1088.165283,132.153091 1090.253784,131.730103 
	C1088.154175,131.153717 1086.054810,130.072952 1083.955078,130.072388 
	C800.803406,129.997192 517.651672,130.000931 233.500000,130.000931 
M254.848404,24.901073 
	C251.613907,24.701048 248.376633,24.340176 245.146545,24.395874 
	C244.135422,24.413309 243.143661,25.553286 242.143036,26.179426 
	C242.794830,27.001656 243.515549,27.779253 244.083099,28.656017 
	C245.064270,30.171747 246.466080,31.658745 246.757111,33.321339 
	C247.208694,35.901310 246.876373,38.618500 246.876373,41.388794 
	C244.734406,41.191154 242.783218,40.922955 240.824509,40.845222 
	C230.850174,40.449398 223.966400,46.451183 223.074982,56.399632 
	C222.852859,58.878510 222.824478,61.405144 223.017197,63.885738 
	C224.057465,77.275848 234.398895,82.233650 245.485550,74.725800 
	C245.842728,74.483917 246.306351,74.399200 246.758087,74.226807 
	C246.925583,75.594482 247.073502,76.802307 247.215607,77.962563 
	C250.804626,77.962563 253.964508,78.051857 257.112946,77.901489 
	C257.927612,77.862587 259.368622,77.066559 259.364746,76.628601 
	C259.356445,75.697487 258.594269,74.770111 258.130310,73.846634 
	C257.119110,71.833969 255.259872,69.840622 255.221436,67.811462 
	C254.956528,53.819500 255.071106,39.820354 254.848404,24.901073 
M301.646881,64.163429 
	C301.013458,63.909981 299.936829,63.790947 299.813049,63.382931 
	C297.934235,57.187252 296.079681,50.979908 294.447968,44.715771 
	C293.822845,42.315880 293.019409,41.011547 290.179169,41.050480 
	C287.509766,41.087074 286.449585,42.049778 285.689209,44.520664 
	C283.554749,51.456429 281.110687,58.296902 278.322662,66.555626 
	C276.440765,60.540665 274.896606,55.867985 273.535553,51.142563 
	C272.867340,48.822723 271.723907,46.233349 275.329620,44.942841 
	C275.852081,44.755848 276.330811,43.134834 276.075317,42.465359 
	C275.833435,41.831547 274.610687,41.239120 273.799866,41.212135 
	C269.975403,41.084846 266.141174,41.078693 262.317993,41.225803 
	C261.541199,41.255695 260.346741,42.005074 260.162720,42.654530 
	C259.973846,43.320969 260.709961,44.318581 261.177612,45.088402 
	C262.345062,47.010147 264.005402,48.739353 264.728821,50.804707 
	C267.307312,58.166477 269.529633,65.652168 271.993500,73.055443 
	C272.761475,75.362938 272.616180,78.109039 276.677734,78.214012 
	C280.977783,78.325165 280.989563,75.391029 281.887878,72.931183 
	C284.075195,66.941589 286.125031,60.901779 288.725647,53.465450 
	C291.083191,61.552414 292.896393,68.242439 295.065918,74.814827 
	C295.496582,76.119507 297.134491,77.503716 298.497192,77.912216 
	C300.616180,78.547424 302.425995,78.071716 303.415924,75.265396 
	C305.954041,68.070229 308.777008,60.960712 311.840607,53.972359 
	C313.249542,50.758434 315.479950,47.902920 317.355255,44.895748 
	C318.589478,42.916580 318.624054,41.326229 315.816895,41.195560 
	C312.494659,41.040913 309.156097,41.071098 305.833130,41.216179 
	C305.027496,41.251354 303.785461,41.908363 303.593872,42.538002 
	C303.383423,43.229626 303.942932,44.760208 304.532837,44.991333 
	C308.037140,46.364227 307.019623,48.768684 306.189117,51.171070 
	C304.779083,55.249607 303.337646,59.317299 301.646881,64.163429 
M343.041412,73.062912 
	C342.217468,74.281883 341.393555,75.500862 340.569611,76.719841 
	C341.871002,77.133156 343.151520,77.792809 344.478394,77.905258 
	C346.790344,78.101173 349.140839,78.091324 351.456146,77.916176 
	C353.160889,77.787224 354.835327,77.257362 356.523254,76.906128 
	C355.643829,75.571365 354.752563,74.244179 353.890808,72.898071 
	C353.550049,72.365791 353.011230,71.791748 353.010468,71.236122 
	C353.001892,64.926872 352.438782,58.507618 353.490601,52.369095 
	C353.848267,50.281738 358.333557,48.901630 360.932709,47.198345 
	C362.308044,49.375851 364.550842,51.431717 364.876801,53.756355 
	C365.541046,58.493416 365.435974,63.393784 365.101440,68.188744 
	C364.963348,70.168381 363.411896,72.046631 362.517456,73.977562 
	C362.129974,74.814034 361.349518,75.782188 361.536438,76.478874 
	C361.708191,77.118912 362.925781,77.862961 363.706207,77.890350 
	C367.693054,78.030304 371.690796,78.035744 375.676239,77.875900 
	C376.400726,77.846840 377.366302,76.955704 377.689728,76.226921 
	C377.903534,75.745132 377.326050,74.365944 376.834442,74.204178 
	C373.076660,72.967705 373.877472,69.864639 373.778381,67.149025 
	C373.560455,61.175640 373.817047,55.148502 373.091309,49.240177 
	C372.342377,43.142815 368.323547,40.186440 362.242126,40.980957 
	C359.095917,41.391994 356.109589,43.026573 353.181244,44.062309 
	C352.724091,43.197159 352.218262,41.240490 351.578522,41.195679 
	C348.116119,40.953182 344.620636,41.183796 341.136536,41.251366 
	C341.273865,42.639587 341.137512,44.134968 341.627045,45.385288 
	C342.098328,46.589027 343.928253,47.533432 343.937256,48.602093 
	C344.004242,56.557632 343.766571,64.515739 343.041412,73.062912 
M46.057400,55.973686 
	C46.040668,58.626659 45.749115,61.312458 46.061264,63.926155 
	C46.844162,70.481583 49.710346,75.872826 56.545055,77.571373 
	C63.431293,79.282730 70.160286,78.759186 75.220688,72.841232 
	C80.024048,67.223885 80.903053,55.120220 77.118279,48.287273 
	C73.455635,41.674805 67.418465,40.309387 60.518970,40.930016 
	C53.050297,41.601837 48.886917,45.692867 46.057400,55.973686 
M184.890381,70.416374 
	C188.890732,78.068977 195.742218,78.993797 203.242264,77.972908 
	C209.504578,77.120491 214.501709,72.272850 215.725037,65.430344 
	C216.385925,61.733768 216.357361,57.803429 215.956299,54.051624 
	C215.231308,47.269772 210.778214,42.516384 204.584778,41.134998 
	C196.974258,39.437546 189.695511,41.873898 186.108734,47.693493 
	C181.793976,54.694241 181.930588,62.139084 184.890381,70.416374 
M106.161827,41.243134 
	C95.926613,39.970692 89.360558,42.911652 86.578903,50.778576 
	C85.342606,54.275017 84.979134,58.240097 84.999763,61.988163 
	C85.044907,70.184776 88.772156,75.623680 95.016350,77.594627 
	C102.587128,79.984306 110.290352,77.311516 115.298950,70.366035 
	C114.356506,69.375511 113.374039,68.342918 112.127808,67.033112 
	C108.076790,71.012756 103.622650,73.680733 98.154419,70.997360 
	C93.759285,68.840584 93.627144,64.540558 93.563728,59.927559 
	C101.090385,59.927559 108.363365,59.927559 115.581406,59.927559 
	C116.616608,50.304569 113.940620,44.803444 106.161827,41.243134 
M323.988739,60.486462 
	C323.988739,61.819012 324.095428,63.161835 323.968353,64.482155 
	C323.613525,68.168777 325.692993,72.693901 320.537811,74.786583 
	C321.217926,75.858871 321.814880,77.781029 322.592468,77.857109 
	C326.057465,78.196106 329.597687,78.241104 333.059998,77.890854 
	C334.390533,77.756264 335.586029,76.286629 338.019562,74.619141 
	C332.517578,74.118820 332.765808,71.258957 332.753754,68.671738 
	C332.711212,59.556580 332.737213,50.441101 332.737213,41.307808 
	C328.763275,41.307808 325.472778,41.224724 322.192566,41.371418 
	C321.454559,41.404423 320.303802,42.127453 320.151917,42.735035 
	C319.977997,43.430622 320.550507,44.944450 321.066925,45.079887 
	C324.806763,46.060692 323.942108,48.972912 323.979828,51.503666 
	C324.019501,54.168186 323.988739,56.833759 323.988739,60.486462 
M26.927525,63.495300 
	C26.927347,67.326927 26.791197,71.164543 26.959343,74.988770 
	C27.202377,80.516182 26.572906,85.456139 19.761175,87.147400 
	C20.509129,89.072365 21.070833,90.517990 21.615564,91.919930 
	C32.161728,89.143867 35.689941,84.822014 35.829582,74.116325 
	C35.994701,61.457394 35.764938,48.792633 36.005447,36.136086 
	C36.041916,34.216888 37.694843,32.327396 38.604393,30.426229 
	C39.057526,29.479084 39.520409,28.536604 39.978874,27.592010 
	C39.135170,27.206869 38.298553,26.507839 37.446587,26.488594 
	C32.666718,26.380638 27.883150,26.436586 22.495113,26.436586 
	C22.948978,28.127054 22.960863,29.834177 23.537958,30.053398 
	C27.562750,31.582296 26.897667,34.937599 26.913338,38.008060 
	C26.955006,46.170883 26.927513,54.334061 26.927525,63.495300 
M110.932976,98.164307 
	C108.234177,98.164307 105.535385,98.164307 103.374619,98.164307 
	C103.374619,103.135361 103.374619,107.884438 103.374619,113.024170 
	C103.942749,113.024170 104.911369,113.060150 105.876160,113.014717 
	C106.989388,112.962296 108.099251,112.838051 109.284584,112.738800 
	C106.721596,106.025673 107.464752,102.075829 111.780396,100.438309 
	C111.780396,104.587769 111.780396,108.613388 111.780396,112.658997 
	C113.843803,112.658997 115.725327,112.658997 116.965218,112.658997 
	C116.965218,109.164185 116.836418,106.027786 117.044899,102.913963 
	C117.106216,101.998108 118.123024,101.146225 118.701942,100.265030 
	C119.474556,101.136459 120.833931,101.957741 120.913467,102.888405 
	C121.189110,106.113457 121.019783,109.376541 121.019783,112.683052 
	C122.715408,112.683052 124.607079,112.683052 125.852493,112.683052 
	C125.852493,109.380630 126.009720,106.406792 125.808586,103.457390 
	C125.604622,100.466499 124.747566,97.837448 120.850388,97.980453 
	C117.818748,98.091698 114.780594,98.025475 110.932976,98.164307 
M172.438019,113.015152 
	C180.299515,112.757408 184.344818,108.708679 183.674240,101.769432 
	C182.938431,94.155052 177.707092,91.713219 166.336060,93.362534 
	C166.336060,99.879372 166.336060,106.324387 166.336060,113.015709 
	C167.927109,113.015709 169.742630,113.015709 172.438019,113.015152 
M266.035126,98.200638 
	C263.518829,98.200638 261.002533,98.200638 258.803528,98.200638 
	C258.803528,105.346764 258.803528,112.019730 258.803528,118.730278 
	C260.823059,118.730278 262.729218,118.730278 264.564117,118.730278 
	C264.315674,116.864426 264.105072,115.282585 263.898468,113.730881 
	C271.788422,112.077538 274.355774,109.679337 273.827515,104.394287 
	C273.417877,100.296127 271.649933,97.407799 266.035126,98.200638 
M78.147095,95.082863 
	C79.316101,96.072411 80.485107,97.061966 81.654106,98.051514 
	C82.088005,97.831978 82.521904,97.612442 82.955803,97.392906 
	C82.385246,96.040100 82.022652,93.674088 81.208725,93.507050 
	C77.350685,92.715202 73.308197,92.009163 70.010811,95.358864 
	C66.818459,98.601883 65.993935,105.027710 68.333839,109.285706 
	C70.445961,113.129189 75.390930,114.097839 82.708397,112.062233 
	C82.944649,109.527931 83.183731,106.963257 83.441132,104.202103 
	C81.409767,104.202103 79.481125,104.202103 77.451256,104.202103 
	C77.658409,105.867958 78.412872,107.616035 77.850700,108.644241 
	C77.302193,109.647469 75.408356,109.915146 74.105141,110.505737 
	C73.437164,107.348656 72.198219,104.178337 72.271072,101.038445 
	C72.336372,98.223976 73.201515,94.886307 78.147095,95.082863 
M199.157425,101.502205 
	C197.295486,97.349091 193.815018,97.338905 190.317245,98.466728 
	C186.533585,99.686752 185.292511,103.095459 186.158249,106.488159 
	C186.757950,108.838326 188.568253,111.618095 190.626587,112.687874 
	C193.874710,114.375999 196.747543,112.797020 198.482391,109.692932 
	C191.934845,111.245583 191.697784,111.134727 191.407288,105.889153 
	C193.225632,105.889153 195.022202,105.818466 196.811111,105.905350 
	C199.651917,106.043327 200.392822,104.766106 199.157425,101.502205 
M227.285339,112.181465 
	C227.872559,111.443680 228.459793,110.705887 229.669495,109.186043 
	C222.701706,111.584335 221.811615,111.181427 221.481705,106.182083 
	C224.199356,105.979317 226.923691,105.776054 229.800186,105.561440 
	C230.197449,101.284241 228.725464,98.646942 224.771637,98.057259 
	C220.733521,97.455017 217.509659,98.838341 216.293793,103.095879 
	C214.341187,109.933243 218.601212,113.805313 227.285339,112.181465 
M287.424255,109.376938 
	C285.597260,109.657455 283.744080,110.209770 281.960663,110.037895 
	C281.481934,109.991753 281.215759,107.740112 280.742920,106.129288 
	C284.166565,105.939911 286.767578,105.796043 289.582581,105.640343 
	C289.381500,102.012390 288.906342,98.870827 284.998260,98.122337 
	C281.760559,97.502251 278.477722,97.825722 276.755646,101.176773 
	C275.077789,104.441788 274.561310,108.239830 277.522614,110.798218 
	C279.241302,112.283081 282.275604,112.690201 284.718872,112.692856 
	C285.845398,112.694084 286.974213,110.563362 287.424255,109.376938 
M139.616226,98.500328 
	C137.819885,98.371529 135.942078,97.845795 134.243744,98.194450 
	C130.405899,98.982323 129.037094,101.824165 128.946442,105.554146 
	C128.860840,109.076218 129.946594,111.805252 133.547745,112.861526 
	C137.170425,113.924110 139.761520,112.800102 141.472473,109.682571 
	C134.957993,111.260368 134.679962,111.130135 134.436569,106.187706 
	C137.149780,105.979401 139.869904,105.770569 143.813889,105.467781 
	C142.341843,102.764099 141.306824,100.863083 139.616226,98.500328 
M241.869629,109.432930 
	C244.837204,113.106514 249.078888,114.149445 252.668396,112.088066 
	C255.711548,110.340439 256.885590,105.771988 255.370468,101.938103 
	C253.607574,97.477272 249.905655,97.533745 246.227570,98.219429 
	C242.280151,98.955330 240.650681,102.942116 241.869629,109.432930 
M91.262672,112.963554 
	C94.239655,112.963554 97.216637,112.963554 100.463814,112.963554 
	C99.836746,111.691147 99.242020,110.980782 99.157982,110.214409 
	C98.959976,108.408531 98.976944,106.576263 98.957626,104.754128 
	C98.891502,98.514801 97.752892,97.529869 92.060226,98.435265 
	C92.873329,100.193443 93.742554,102.072960 94.611778,103.952477 
	C94.048943,103.793877 93.486107,103.635277 92.923271,103.476677 
	C90.651527,105.662468 88.379784,107.848267 86.108032,110.034058 
	C87.556877,111.026741 89.005722,112.019424 91.262672,112.963554 
M151.174652,103.175468 
	C150.802109,102.373856 150.429581,101.572243 150.057037,100.770630 
	C151.904922,100.968491 153.752808,101.166351 156.616287,101.472954 
	C155.558533,100.021889 154.775513,98.186691 154.166840,98.242798 
	C151.342438,98.503143 147.126984,98.359283 146.034073,100.053329 
	C142.262756,105.899010 150.731674,105.759453 152.068405,110.991669 
	C149.224045,110.338295 147.066422,109.842667 144.908798,109.347038 
	C144.620728,109.668793 144.332657,109.990547 144.044586,110.312302 
	C145.074585,111.191177 146.050659,112.734482 147.144791,112.823273 
	C150.316376,113.080666 154.216080,114.136650 155.765366,109.980736 
	C157.026093,106.598892 154.684174,104.778786 151.174652,103.175468 
M200.835159,98.301552 
	C202.246857,102.352821 203.589218,106.430611 205.121048,110.435936 
	C205.485138,111.387962 206.627319,112.858345 207.159866,112.757744 
	C208.222076,112.557068 209.505142,111.632874 210.000305,110.654808 
	C212.010040,106.685074 213.755676,102.581635 215.728729,98.241486 
	C213.967361,98.241486 212.397232,98.241486 211.570938,98.241486 
	C210.840805,101.274681 210.196045,103.953194 209.551270,106.631699 
	C209.051453,106.597145 208.551636,106.562592 208.051819,106.528038 
	C207.585464,103.777817 207.119125,101.027596 206.610931,98.030647 
	C205.127930,98.030647 203.313660,98.030647 200.835159,98.301552 
M301.986481,101.876144 
	C302.639557,101.189857 303.582947,100.588310 303.818878,99.780228 
	C303.930725,99.397026 302.716583,98.135735 302.060089,98.101669 
	C298.683411,97.926407 295.292755,98.020432 292.489594,98.020432 
	C292.489594,103.248543 292.489594,107.911087 292.489594,112.699219 
	C294.529541,112.699219 296.423950,112.699219 297.779327,112.699219 
	C297.779327,109.247032 297.625641,106.109573 297.829620,102.995529 
	C297.983246,100.649956 299.036957,99.423332 301.986481,101.876144 
M238.230545,111.749763 
	C237.687973,105.350502 237.145416,98.951241 236.579071,92.271515 
	C235.037125,92.271515 233.463028,92.271515 232.476440,92.271515 
	C232.476440,99.225235 232.476440,106.021248 232.476440,113.224899 
	C234.805283,112.939751 236.573273,112.723274 238.230545,111.749763 
M324.071930,31.550459 
	C324.168549,32.972878 324.265198,34.395298 324.359802,35.787636 
	C327.381683,35.787636 329.943420,35.787636 332.541718,35.787636 
	C332.541718,32.758671 332.541718,30.068850 332.541718,26.720848 
	C329.439362,28.437393 324.423676,23.758450 324.071930,31.550459 
z"/>
<path fill="#595959" opacity="1.000000" stroke="none" 
	d="
M991.000000,6.000914 
	C1022.665039,6.000916 1053.830078,6.000694 1084.995117,6.001780 
	C1086.161499,6.001820 1087.353271,5.873568 1088.484619,6.076187 
	C1089.125732,6.191009 1089.668091,6.858147 1090.254883,7.276515 
	C1089.652588,7.844982 1089.131104,8.729249 1088.429199,8.909091 
	C1087.333130,9.189876 1086.114868,8.998375 1084.948364,8.998377 
	C727.633911,8.999100 370.319458,8.999103 13.005004,8.998240 
	C11.838545,8.998238 10.646843,9.126406 9.515438,8.923816 
	C8.874214,8.808998 8.331878,8.141919 7.745004,7.723571 
	C8.347346,7.155080 8.891250,6.196290 9.563636,6.095615 
	C11.194407,5.851446 12.884974,6.001627 14.551445,6.001623 
	C339.867615,6.000888 665.183838,6.000914 991.000000,6.000914 
z"/>
<path fill="#595959" opacity="1.000000" stroke="none" 
	d="
M234.000000,130.000931 
	C517.651672,130.000931 800.803406,129.997192 1083.955078,130.072388 
	C1086.054810,130.072952 1088.154175,131.153717 1090.253784,131.730103 
	C1088.165283,132.153091 1086.076904,132.946365 1083.988403,132.946686 
	C727.340576,133.001236 370.692749,133.002045 14.044939,132.927704 
	C11.945209,132.927261 9.845703,131.846329 7.746093,131.269989 
	C9.834559,130.846970 11.922705,130.055984 14.011538,130.054169 
	C87.174316,129.990433 160.337158,130.000931 234.000000,130.000931 
z"/>
<path fill="#0C0C0C" opacity="1.000000" stroke="none" 
	d="
M254.956039,25.362297 
	C255.071106,39.820354 254.956528,53.819500 255.221436,67.811462 
	C255.259872,69.840622 257.119110,71.833969 258.130310,73.846634 
	C258.594269,74.770111 259.356445,75.697487 259.364746,76.628601 
	C259.368622,77.066559 257.927612,77.862587 257.112946,77.901489 
	C253.964508,78.051857 250.804626,77.962563 247.215607,77.962563 
	C247.073502,76.802307 246.925583,75.594482 246.758087,74.226807 
	C246.306351,74.399200 245.842728,74.483917 245.485550,74.725800 
	C234.398895,82.233650 224.057465,77.275848 223.017197,63.885738 
	C222.824478,61.405144 222.852859,58.878510 223.074982,56.399632 
	C223.966400,46.451183 230.850174,40.449398 240.824509,40.845222 
	C242.783218,40.922955 244.734406,41.191154 246.876373,41.388794 
	C246.876373,38.618500 247.208694,35.901310 246.757111,33.321339 
	C246.466080,31.658745 245.064270,30.171747 244.083099,28.656017 
	C243.515549,27.779253 242.794830,27.001656 242.143036,26.179428 
	C243.143661,25.553286 244.135422,24.413309 245.146545,24.395874 
	C248.376633,24.340176 251.613907,24.701048 254.956039,25.362297 
M234.571457,48.000118 
	C230.657990,53.316879 231.448090,59.363144 232.238678,65.246361 
	C232.750458,69.054848 234.611984,72.230522 239.338226,71.980011 
	C243.354782,71.767113 246.587341,68.535683 246.841354,64.154373 
	C247.033005,60.848724 246.983841,57.521145 246.883453,54.208126 
	C246.636734,46.065399 242.478409,43.683838 234.571457,48.000118 
M233.711548,72.873070 
	C232.870407,73.022736 232.029282,73.172394 231.188141,73.322060 
	C231.654404,74.072685 232.120667,74.823318 232.586929,75.573959 
	C233.028244,74.901390 233.469559,74.228828 233.711548,72.873070 
M227.725204,56.119278 
	C227.532776,55.575211 227.340347,55.031147 227.147919,54.487080 
	C226.868988,54.614594 226.590057,54.742107 226.311127,54.869617 
	C226.637329,55.429619 226.963516,55.989616 227.725204,56.119278 
M230.608948,48.797634 
	C230.214371,48.793446 229.819809,48.789253 229.425217,48.785065 
	C229.423706,48.948807 229.411209,49.254864 229.422256,49.255714 
	C229.814865,49.285988 230.209686,49.287670 230.608948,48.797634 
z"/>
<path fill="#121212" opacity="1.000000" stroke="none" 
	d="
M301.778137,63.776489 
	C303.337646,59.317299 304.779083,55.249607 306.189117,51.171070 
	C307.019623,48.768684 308.037140,46.364227 304.532837,44.991333 
	C303.942932,44.760208 303.383423,43.229626 303.593872,42.538002 
	C303.785461,41.908363 305.027496,41.251354 305.833130,41.216179 
	C309.156097,41.071098 312.494659,41.040913 315.816895,41.195560 
	C318.624054,41.326229 318.589478,42.916580 317.355255,44.895748 
	C315.479950,47.902920 313.249542,50.758434 311.840607,53.972359 
	C308.777008,60.960712 305.954041,68.070229 303.415924,75.265396 
	C302.425995,78.071716 300.616180,78.547424 298.497192,77.912216 
	C297.134491,77.503716 295.496582,76.119507 295.065918,74.814827 
	C292.896393,68.242439 291.083191,61.552414 288.725647,53.465450 
	C286.125031,60.901779 284.075195,66.941589 281.887878,72.931183 
	C280.989563,75.391029 280.977783,78.325165 276.677734,78.214012 
	C272.616180,78.109039 272.761475,75.362938 271.993500,73.055443 
	C269.529633,65.652168 267.307312,58.166477 264.728821,50.804707 
	C264.005402,48.739353 262.345062,47.010147 261.177612,45.088402 
	C260.709961,44.318581 259.973846,43.320969 260.162720,42.654530 
	C260.346741,42.005074 261.541199,41.255695 262.317993,41.225803 
	C266.141174,41.078693 269.975403,41.084846 273.799866,41.212135 
	C274.610687,41.239120 275.833435,41.831547 276.075317,42.465359 
	C276.330811,43.134834 275.852081,44.755848 275.329620,44.942841 
	C271.723907,46.233349 272.867340,48.822723 273.535553,51.142563 
	C274.896606,55.867985 276.440765,60.540665 278.322662,66.555626 
	C281.110687,58.296902 283.554749,51.456429 285.689209,44.520664 
	C286.449585,42.049778 287.509766,41.087074 290.179169,41.050480 
	C293.019409,41.011547 293.822845,42.315880 294.447968,44.715771 
	C296.079681,50.979908 297.934235,57.187252 299.813049,63.382931 
	C299.936829,63.790947 301.013458,63.909981 301.778137,63.776489 
M266.896057,43.189342 
	C266.582001,44.566975 265.698181,46.112106 266.045990,47.295174 
	C268.380524,55.236374 270.902222,63.125744 273.545685,70.970436 
	C274.136719,72.724327 275.393188,74.278687 276.528503,75.785347 
	C276.639252,75.932335 278.328308,75.303398 278.825531,74.672638 
	C280.750061,72.231247 278.321686,71.119987 277.111725,69.625313 
	C276.817566,69.261902 276.738098,68.707672 276.612427,68.227440 
	C274.735596,61.056488 272.985809,53.848484 270.896698,46.740147 
	C270.483948,45.335793 268.773407,44.312855 266.896057,43.189342 
M295.788849,69.711983 
	C296.197296,71.140968 296.360870,72.716522 297.098297,73.948586 
	C297.609406,74.802528 298.911224,75.183220 299.859741,75.775368 
	C300.412659,74.400612 301.730103,72.778465 301.379822,71.695992 
	C300.172943,67.966454 298.145691,64.507080 296.870911,60.793758 
	C294.873535,54.975662 293.234680,49.034504 291.268341,42.567871 
	C288.328094,45.059101 284.291168,46.396290 289.548706,49.701065 
	C290.257355,50.146500 290.606720,51.356876 290.870636,52.284664 
	C292.448944,57.833271 293.953430,63.402866 295.788849,69.711983 
M313.613342,44.274670 
	C311.997162,43.829845 310.380981,43.385021 308.764801,42.940197 
	C308.704437,43.693058 308.644104,44.445915 308.583740,45.198776 
	C310.172363,45.107853 311.760986,45.016930 313.613342,44.274670 
M307.021790,55.381538 
	C306.839325,56.389980 306.656830,57.398426 306.474365,58.406868 
	C306.822021,58.495190 307.169708,58.583511 307.517365,58.671833 
	C308.326080,56.386192 309.134827,54.100548 309.943542,51.814907 
	C309.517975,51.652878 309.092438,51.490845 308.666870,51.328815 
	C308.178406,52.446243 307.689941,53.563667 307.021790,55.381538 
M303.825287,64.225761 
	C303.673096,64.949699 303.520935,65.673645 303.368744,66.397591 
	C303.695923,66.496773 304.023132,66.595963 304.350311,66.695152 
	C304.820618,65.368507 305.290924,64.041855 305.761230,62.715214 
	C305.498718,62.579266 305.236206,62.443317 304.973694,62.307369 
	C304.643311,62.741920 304.312897,63.176476 303.825287,64.225761 
z"/>
<path fill="#111111" opacity="1.000000" stroke="none" 
	d="
M155.000717,73.002243 
	C155.960800,72.986557 156.924622,72.908676 157.880264,72.966438 
	C161.197769,73.166969 164.904175,72.968506 165.603333,69.231819 
	C166.336502,65.313271 168.048325,60.684658 163.428650,57.446526 
	C162.563446,56.840057 162.157288,55.578686 160.746399,53.388916 
	C166.977325,53.388916 171.873734,53.290001 176.752518,53.537811 
	C177.255249,53.563347 178.189270,56.560009 178.020935,56.660053 
	C173.715302,59.219093 175.254913,63.398560 175.035309,67.028168 
	C174.884903,69.514008 175.075851,72.018692 174.989349,74.510620 
	C174.868683,77.986671 172.994308,78.974350 169.813690,77.646645 
	C168.533951,77.112442 166.816544,76.799301 165.548203,77.192200 
	C151.502563,81.543236 140.999130,74.923843 138.889832,60.378075 
	C137.744980,52.483021 137.962631,44.719681 141.577454,37.507427 
	C146.305801,28.073507 154.251770,24.619181 166.360306,26.179436 
	C175.020065,27.295296 175.309158,27.572990 174.616776,36.327583 
	C174.525864,37.477184 173.383896,39.435791 172.687271,39.454250 
	C171.356567,39.489502 169.412872,38.767941 168.742111,37.712944 
	C164.295410,30.718964 163.391373,30.252150 154.502991,31.776024 
	C153.244232,30.917301 151.983459,29.784964 151.754211,29.965130 
	C149.436264,31.786827 146.748138,33.470852 145.185257,35.861279 
	C138.987030,45.341484 139.649323,55.842613 142.702499,65.942154 
	C145.290161,74.501793 152.745346,77.569481 160.671143,75.583809 
	C159.303650,74.961235 157.152191,73.981743 155.000717,73.002243 
M166.445740,73.244987 
	C168.450241,74.038002 170.454742,74.831024 173.097443,75.876526 
	C173.097443,68.960800 173.097443,62.758297 173.097443,56.324429 
	C171.378769,56.324429 169.502121,56.324429 168.567352,56.324429 
	C167.806168,62.010784 167.104233,67.254417 166.445740,73.244987 
M170.304031,35.247299 
	C170.806381,33.611691 171.308731,31.976084 171.811096,30.340477 
	C170.101395,29.852406 168.391708,29.364332 166.682007,28.876261 
	C166.519028,29.325495 166.356049,29.774729 166.193069,30.223963 
	C167.422043,31.708271 168.651016,33.192581 170.304031,35.247299 
M159.292557,28.879768 
	C160.226273,28.879768 161.160004,28.879768 162.093719,28.879768 
	C162.091461,28.615725 162.089203,28.351683 162.086945,28.087639 
	C161.026382,28.208981 159.965836,28.330322 159.292557,28.879768 
z"/>
<path fill="#1B1B1B" opacity="1.000000" stroke="none" 
	d="
M343.332947,72.767975 
	C343.766571,64.515739 344.004242,56.557632 343.937256,48.602093 
	C343.928253,47.533432 342.098328,46.589027 341.627045,45.385288 
	C341.137512,44.134968 341.273865,42.639587 341.136536,41.251366 
	C344.620636,41.183796 348.116119,40.953182 351.578522,41.195679 
	C352.218262,41.240490 352.724091,43.197159 353.181244,44.062309 
	C356.109589,43.026573 359.095917,41.391994 362.242126,40.980957 
	C368.323547,40.186440 372.342377,43.142815 373.091309,49.240177 
	C373.817047,55.148502 373.560455,61.175640 373.778381,67.149025 
	C373.877472,69.864639 373.076660,72.967705 376.834442,74.204178 
	C377.326050,74.365944 377.903534,75.745132 377.689728,76.226921 
	C377.366302,76.955704 376.400726,77.846840 375.676239,77.875900 
	C371.690796,78.035744 367.693054,78.030304 363.706207,77.890350 
	C362.925781,77.862961 361.708191,77.118912 361.536438,76.478874 
	C361.349518,75.782188 362.129974,74.814034 362.517456,73.977562 
	C363.411896,72.046631 364.963348,70.168381 365.101440,68.188744 
	C365.435974,63.393784 365.541046,58.493416 364.876801,53.756355 
	C364.550842,51.431717 362.308044,49.375851 360.932739,47.198345 
	C358.333557,48.901630 353.848267,50.281738 353.490601,52.369095 
	C352.438782,58.507618 353.001892,64.926872 353.010468,71.236122 
	C353.011230,71.791748 353.550049,72.365791 353.890808,72.898071 
	C354.752563,74.244179 355.643829,75.571365 356.523254,76.906136 
	C354.835327,77.257362 353.160889,77.787224 351.456146,77.916176 
	C349.140839,78.091324 346.790344,78.101173 344.478394,77.905258 
	C343.151520,77.792809 341.871002,77.133156 340.569611,76.719841 
	C341.393555,75.500862 342.217468,74.281883 343.332947,72.767975 
M345.963715,65.400116 
	C345.754456,68.879013 345.545197,72.357903 345.337097,75.817780 
	C347.538269,75.817780 349.811981,75.817780 351.621490,75.817780 
	C351.420380,71.230675 351.259613,66.847908 351.028290,62.468868 
	C350.741577,57.041298 350.317749,51.619900 350.104736,46.189888 
	C349.966156,42.657635 348.171631,42.554592 345.963593,43.346157 
	C345.963593,50.590202 345.963593,57.508091 345.963715,65.400116 
M367.938080,66.156700 
	C367.283569,69.327522 366.629089,72.498344 365.957367,75.752609 
	C368.381897,75.752609 370.782623,75.752609 372.122833,75.752609 
	C371.750824,67.473465 371.290924,59.429695 371.056396,51.379360 
	C370.838623,43.903862 365.762268,40.933762 358.387451,44.699982 
	C362.770599,45.112755 366.480347,46.061840 366.916870,50.905018 
	C367.347565,55.683563 367.626312,60.475807 367.938080,66.156700 
z"/>
<path fill="#101010" opacity="1.000000" stroke="none" 
	d="
M46.090363,55.536697 
	C48.886917,45.692867 53.050297,41.601837 60.518970,40.930016 
	C67.418465,40.309387 73.455635,41.674805 77.118279,48.287273 
	C80.903053,55.120220 80.024048,67.223885 75.220688,72.841232 
	C70.160286,78.759186 63.431293,79.282730 56.545055,77.571373 
	C49.710346,75.872826 46.844162,70.481583 46.061264,63.926155 
	C45.749115,61.312458 46.040668,58.626659 46.090363,55.536697 
M57.119541,70.295792 
	C62.377247,75.370956 67.896004,74.439140 69.197884,67.488632 
	C70.221893,62.021622 69.680870,56.051147 68.653572,50.523903 
	C68.292297,48.580135 64.451172,46.113701 62.143555,46.054752 
	C60.137695,46.003506 57.017914,48.613243 56.200115,50.742203 
	C53.829647,56.913219 54.006851,63.371811 57.119541,70.295792 
M48.001431,62.182259 
	C49.746498,71.673248 51.400810,73.945969 56.687782,74.026115 
	C50.994469,64.028038 50.269161,54.061939 57.059628,44.074978 
	C49.550789,47.638348 47.467747,53.795109 48.001431,62.182259 
M69.541641,47.202110 
	C70.422745,49.504795 71.154282,51.883812 72.268639,54.067463 
	C72.642715,54.800476 74.005531,55.404312 74.890091,55.370869 
	C75.490608,55.348160 76.486259,54.148640 76.546738,53.413033 
	C76.868614,49.498459 72.632462,45.187824 68.119713,44.856312 
	C68.496552,45.533897 68.804871,46.088295 69.541641,47.202110 
M71.553543,67.848335 
	C71.133492,69.354996 70.713432,70.861656 70.293373,72.368317 
	C74.371742,70.491745 77.450859,68.226196 73.928902,62.771042 
	C73.228310,64.221893 72.527710,65.672752 71.553543,67.848335 
z"/>
<path fill="#101010" opacity="1.000000" stroke="none" 
	d="
M184.743500,70.053444 
	C181.930588,62.139084 181.793976,54.694241 186.108734,47.693493 
	C189.695511,41.873898 196.974258,39.437546 204.584778,41.134998 
	C210.778214,42.516384 215.231308,47.269772 215.956299,54.051624 
	C216.357361,57.803429 216.385925,61.733768 215.725037,65.430344 
	C214.501709,72.272850 209.504578,77.120491 203.242264,77.972908 
	C195.742218,78.993797 188.890732,78.068977 184.743500,70.053444 
M194.592300,70.954201 
	C200.143707,75.062775 204.948761,74.086823 206.133484,67.660240 
	C207.143723,62.180180 206.699539,56.227413 205.717209,50.693504 
	C205.364456,48.706284 201.529022,45.998325 199.343033,46.052235 
	C197.159241,46.106087 193.934570,48.799637 193.121262,51.044338 
	C190.819153,57.398140 190.898285,64.028336 194.592300,70.954201 
M190.721588,50.628159 
	C191.909653,48.563797 193.097733,46.499435 194.417480,44.206268 
	C187.387390,46.424351 184.186691,52.861721 185.011002,62.509834 
	C185.648056,69.966148 188.340118,73.617424 193.607773,74.169724 
	C189.215591,65.321404 188.885620,62.989395 190.721588,50.628159 
M213.667419,53.524200 
	C212.486938,49.133335 210.638153,45.372986 205.303970,44.143612 
	C206.733536,47.767220 207.908142,50.797680 209.123978,53.811512 
	C210.343475,56.834393 211.972000,55.795216 213.667419,53.524200 
M210.620148,70.880959 
	C213.132584,68.693260 213.850189,66.209778 210.618851,62.752621 
	C209.420486,65.882980 208.222137,69.013344 206.503555,73.502655 
	C208.573486,72.290909 209.336227,71.844406 210.620148,70.880959 
z"/>
<path fill="#0A0A0A" opacity="1.000000" stroke="none" 
	d="
M106.510880,41.391380 
	C113.940620,44.803444 116.616608,50.304569 115.581406,59.927559 
	C108.363365,59.927559 101.090385,59.927559 93.563728,59.927559 
	C93.627144,64.540558 93.759285,68.840584 98.154419,70.997360 
	C103.622650,73.680733 108.076790,71.012756 112.127808,67.033112 
	C113.374039,68.342918 114.356506,69.375511 115.298950,70.366035 
	C110.290352,77.311516 102.587128,79.984306 95.016350,77.594627 
	C88.772156,75.623680 85.044907,70.184776 84.999763,61.988163 
	C84.979134,58.240097 85.342606,54.275017 86.578903,50.778576 
	C89.360558,42.911652 95.926613,39.970692 106.510880,41.391380 
M94.052589,54.987442 
	C98.316833,54.987442 102.581078,54.987442 106.870316,54.987442 
	C106.291542,47.195919 104.093575,44.539165 98.752609,46.325150 
	C96.396606,47.112988 94.984352,50.723087 92.576355,52.652077 
	C92.825546,50.581383 93.074745,48.510693 93.342079,46.289261 
	C86.302254,49.455460 85.461540,62.274750 88.902550,69.669701 
	C91.552574,75.364777 97.773582,77.386841 104.972221,74.780128 
	C103.785156,74.427910 103.101837,74.100540 102.394035,74.034134 
	C93.917343,73.238884 88.053215,63.539879 91.472488,55.825745 
	C91.672562,55.374359 92.567947,55.231167 94.052589,54.987442 
M112.262161,49.589787 
	C110.579163,47.707466 108.896156,45.825150 107.213150,43.942829 
	C106.820297,44.316826 106.427437,44.690826 106.034584,45.064823 
	C106.844627,46.444309 107.775002,47.768188 108.442863,49.213383 
	C110.726868,54.155689 108.917549,56.980812 103.530434,56.999367 
	C100.422806,57.010067 97.315117,57.001308 94.207451,57.001308 
	C94.225670,57.166370 94.243889,57.331429 94.262108,57.496490 
	C100.733551,57.496490 107.204994,57.496490 114.192314,57.496490 
	C113.575790,54.699780 113.088707,52.490234 112.262161,49.589787 
z"/>
<path fill="#060606" opacity="1.000000" stroke="none" 
	d="
M323.988739,59.992668 
	C323.988739,56.833759 324.019501,54.168186 323.979828,51.503666 
	C323.942108,48.972912 324.806763,46.060692 321.066925,45.079887 
	C320.550507,44.944450 319.977997,43.430622 320.151917,42.735035 
	C320.303802,42.127453 321.454559,41.404423 322.192566,41.371418 
	C325.472778,41.224724 328.763275,41.307808 332.737213,41.307808 
	C332.737213,50.441101 332.711212,59.556580 332.753754,68.671738 
	C332.765808,71.258957 332.517578,74.118820 338.019562,74.619141 
	C335.586029,76.286629 334.390533,77.756264 333.059998,77.890854 
	C329.597687,78.241104 326.057465,78.196106 322.592468,77.857109 
	C321.814880,77.781029 321.217926,75.858871 320.537811,74.786583 
	C325.692993,72.693901 323.613525,68.168777 323.968353,64.482155 
	C324.095428,63.161835 323.988739,61.819012 323.988739,59.992668 
z"/>
<path fill="#151515" opacity="1.000000" stroke="none" 
	d="
M26.927525,62.996201 
	C26.927513,54.334061 26.955006,46.170883 26.913338,38.008060 
	C26.897667,34.937599 27.562750,31.582296 23.537958,30.053398 
	C22.960863,29.834177 22.948978,28.127054 22.495113,26.436586 
	C27.883150,26.436586 32.666718,26.380638 37.446587,26.488594 
	C38.298553,26.507839 39.135170,27.206869 39.978874,27.592010 
	C39.520409,28.536604 39.057526,29.479084 38.604393,30.426229 
	C37.694843,32.327396 36.041916,34.216888 36.005447,36.136086 
	C35.764938,48.792633 35.994701,61.457394 35.829582,74.116325 
	C35.689941,84.822014 32.161728,89.143867 21.615564,91.919930 
	C21.070833,90.517990 20.509129,89.072365 19.761175,87.147400 
	C26.572906,85.456139 27.202377,80.516182 26.959343,74.988770 
	C26.791197,71.164543 26.927347,67.326927 26.927525,62.996201 
M31.605162,83.716728 
	C32.407684,79.365135 33.789982,75.028450 33.902256,70.659119 
	C34.218491,58.352364 33.894573,46.030468 34.074604,33.718216 
	C34.140251,29.228867 32.524216,28.062887 28.504019,29.563660 
	C28.676153,31.556608 29.038742,33.369736 28.955639,35.162197 
	C28.145510,52.636131 30.896749,70.247650 27.127441,88.116875 
	C28.571043,86.750626 29.854258,85.536179 31.605162,83.716728 
M23.590073,88.517242 
	C23.590073,88.517242 23.475092,88.587029 23.590073,88.517242 
z"/>
<path fill="#0C0C0C" opacity="1.000000" stroke="none" 
	d="
M154.803955,72.955643 
	C157.152191,73.981743 159.303650,74.961235 160.671143,75.583809 
	C152.745346,77.569481 145.290161,74.501793 142.702499,65.942154 
	C139.649323,55.842613 138.987030,45.341484 145.185257,35.861279 
	C146.748138,33.470852 149.436264,31.786827 151.754211,29.965130 
	C151.983459,29.784964 153.244232,30.917301 154.042572,31.798923 
	C153.294052,33.055588 152.529205,33.953785 151.135010,34.988636 
	C149.722717,37.104668 148.939743,39.084045 148.156784,41.063427 
	C148.110031,41.497242 148.063293,41.931057 147.634613,42.753166 
	C147.221695,44.447678 147.190720,45.753899 147.159729,47.060120 
	C147.117294,50.385818 147.074860,53.711521 146.807770,57.696327 
	C147.039749,59.565910 147.496368,60.776386 147.952988,61.986862 
	C147.979156,62.421242 148.005341,62.855618 147.823181,63.802467 
	C148.797089,66.171295 149.979355,68.027649 151.161606,69.884003 
	C151.161606,69.884003 151.048492,69.955963 151.061737,70.291840 
	C152.117584,71.390839 153.160217,72.153961 154.202835,72.917084 
	C154.202835,72.917084 154.607178,72.909035 154.803955,72.955643 
z"/>
<path fill="#F5B78D" opacity="1.000000" stroke="none" 
	d="
M111.339157,98.101219 
	C114.780594,98.025475 117.818748,98.091698 120.850388,97.980453 
	C124.747566,97.837448 125.604622,100.466499 125.808586,103.457390 
	C126.009720,106.406792 125.852493,109.380630 125.852493,112.683052 
	C124.607079,112.683052 122.715408,112.683052 121.019783,112.683052 
	C121.019783,109.376541 121.189110,106.113457 120.913467,102.888405 
	C120.833931,101.957741 119.474556,101.136459 118.701935,100.265030 
	C118.123024,101.146225 117.106216,101.998108 117.044899,102.913963 
	C116.836418,106.027786 116.965218,109.164185 116.965218,112.658997 
	C115.725327,112.658997 113.843803,112.658997 111.780396,112.658997 
	C111.780396,108.613388 111.780396,104.587769 111.780396,100.438309 
	C107.464752,102.075829 106.721596,106.025673 109.284584,112.738800 
	C108.099251,112.838051 106.989388,112.962296 105.876160,113.014717 
	C104.911369,113.060150 103.942749,113.024170 103.374619,113.024170 
	C103.374619,107.884438 103.374619,103.135361 103.374619,98.164307 
	C105.535385,98.164307 108.234177,98.164307 111.339157,98.101219 
z"/>
<path fill="#F5B589" opacity="1.000000" stroke="none" 
	d="
M171.998093,113.015427 
	C169.742630,113.015709 167.927109,113.015709 166.336060,113.015709 
	C166.336060,106.324387 166.336060,99.879372 166.336060,93.362534 
	C177.707092,91.713219 182.938431,94.155052 183.674240,101.769432 
	C184.344818,108.708679 180.299515,112.757408 171.998093,113.015427 
M171.116440,99.720329 
	C171.116440,103.309616 171.116440,106.898895 171.116440,110.525429 
	C175.527176,111.431694 177.430695,109.565125 178.144714,105.939095 
	C178.931595,101.943161 179.394745,97.765656 175.336121,95.404922 
	C172.244141,93.606430 170.822052,95.532875 171.116440,99.720329 
z"/>
<path fill="#F5B990" opacity="1.000000" stroke="none" 
	d="
M266.427307,98.129028 
	C271.649933,97.407799 273.417877,100.296127 273.827515,104.394287 
	C274.355774,109.679337 271.788422,112.077538 263.898468,113.730881 
	C264.105072,115.282585 264.315674,116.864426 264.564117,118.730278 
	C262.729218,118.730278 260.823059,118.730278 258.803528,118.730278 
	C258.803528,112.019730 258.803528,105.346764 258.803528,98.200638 
	C261.002533,98.200638 263.518829,98.200638 266.427307,98.129028 
M268.546173,108.895546 
	C268.051910,106.126053 267.574768,103.352791 266.971039,100.607368 
	C266.954865,100.533775 264.949707,100.654915 264.913300,100.865372 
	C264.475677,103.395103 263.823120,105.995850 264.048279,108.504311 
	C264.321808,111.551659 266.012268,112.136131 268.546173,108.895546 
z"/>
<path fill="#F5B88E" opacity="1.000000" stroke="none" 
	d="
M77.758423,95.011383 
	C73.201515,94.886307 72.336372,98.223976 72.271072,101.038445 
	C72.198219,104.178337 73.437164,107.348656 74.105133,110.505737 
	C75.408356,109.915146 77.302193,109.647469 77.850700,108.644241 
	C78.412872,107.616035 77.658409,105.867958 77.451256,104.202103 
	C79.481125,104.202103 81.409767,104.202103 83.441132,104.202103 
	C83.183731,106.963257 82.944649,109.527931 82.708397,112.062233 
	C75.390930,114.097839 70.445961,113.129189 68.333839,109.285706 
	C65.993935,105.027710 66.818459,98.601883 70.010811,95.358864 
	C73.308197,92.009163 77.350685,92.715202 81.208725,93.507050 
	C82.022652,93.674088 82.385246,96.040100 82.955803,97.392906 
	C82.521904,97.612442 82.088005,97.831978 81.654106,98.051514 
	C80.485107,97.061966 79.316101,96.072411 77.758423,95.011383 
z"/>
<path fill="#F5BB93" opacity="1.000000" stroke="none" 
	d="
M199.311752,101.867287 
	C200.392822,104.766106 199.651917,106.043327 196.811111,105.905350 
	C195.022202,105.818466 193.225632,105.889153 191.407288,105.889153 
	C191.697784,111.134727 191.934845,111.245583 198.482391,109.692932 
	C196.747543,112.797020 193.874710,114.375999 190.626587,112.687874 
	C188.568253,111.618095 186.757950,108.838326 186.158249,106.488159 
	C185.292511,103.095459 186.533585,99.686752 190.317245,98.466728 
	C193.815018,97.338905 197.295486,97.349091 199.311752,101.867287 
z"/>
<path fill="#F6BB93" opacity="1.000000" stroke="none" 
	d="
M226.938171,112.365189 
	C218.601212,113.805313 214.341187,109.933243 216.293793,103.095879 
	C217.509659,98.838341 220.733521,97.455017 224.771637,98.057259 
	C228.725464,98.646942 230.197449,101.284241 229.800186,105.561440 
	C226.923691,105.776054 224.199356,105.979317 221.481705,106.182083 
	C221.811615,111.181427 222.701706,111.584335 229.669495,109.186043 
	C228.459793,110.705887 227.872559,111.443680 226.938171,112.365189 
z"/>
<path fill="#F5B990" opacity="1.000000" stroke="none" 
	d="
M287.763123,109.388123 
	C286.974213,110.563362 285.845398,112.694084 284.718872,112.692856 
	C282.275604,112.690201 279.241302,112.283081 277.522614,110.798218 
	C274.561310,108.239830 275.077789,104.441788 276.755646,101.176773 
	C278.477722,97.825722 281.760559,97.502251 284.998260,98.122337 
	C288.906342,98.870827 289.381500,102.012390 289.582581,105.640343 
	C286.767578,105.796043 284.166565,105.939911 280.742920,106.129288 
	C281.215759,107.740112 281.481934,109.991753 281.960663,110.037895 
	C283.744080,110.209770 285.597260,109.657455 287.763123,109.388123 
z"/>
<path fill="#F5BB93" opacity="1.000000" stroke="none" 
	d="
M139.944000,98.731201 
	C141.306824,100.863083 142.341843,102.764099 143.813889,105.467781 
	C139.869904,105.770569 137.149780,105.979401 134.436569,106.187706 
	C134.679962,111.130135 134.957993,111.260368 141.472473,109.682571 
	C139.761520,112.800102 137.170425,113.924110 133.547745,112.861526 
	C129.946594,111.805252 128.860840,109.076218 128.946442,105.554146 
	C129.037094,101.824165 130.405899,98.982323 134.243744,98.194450 
	C135.942078,97.845795 137.819885,98.371529 139.944000,98.731201 
z"/>
<path fill="#F5B88E" opacity="1.000000" stroke="none" 
	d="
M241.708038,109.069489 
	C240.650681,102.942116 242.280151,98.955330 246.227570,98.219429 
	C249.905655,97.533745 253.607574,97.477272 255.370468,101.938103 
	C256.885590,105.771988 255.711548,110.340439 252.668396,112.088066 
	C249.078888,114.149445 244.837204,113.106514 241.708038,109.069489 
M251.045715,107.209938 
	C250.541214,104.905739 250.079361,102.589455 249.437683,100.324104 
	C249.394226,100.170723 247.369034,100.266197 247.324600,100.473221 
	C246.793167,102.949562 246.216400,105.467552 246.202072,107.977783 
	C246.196487,108.958412 247.572968,109.946915 248.319977,110.931847 
	C249.215317,109.976555 250.110672,109.021263 251.045715,107.209938 
z"/>
<path fill="#F5B88F" opacity="1.000000" stroke="none" 
	d="
M90.858620,112.987831 
	C89.005722,112.019424 87.556877,111.026741 86.108032,110.034058 
	C88.379784,107.848267 90.651527,105.662468 92.923271,103.476677 
	C93.486107,103.635277 94.048943,103.793877 94.611778,103.952477 
	C93.742554,102.072960 92.873329,100.193443 92.060226,98.435265 
	C97.752892,97.529869 98.891502,98.514801 98.957626,104.754128 
	C98.976944,106.576263 98.959976,108.408531 99.157982,110.214409 
	C99.242020,110.980782 99.836746,111.691147 100.463814,112.963554 
	C97.216637,112.963554 94.239655,112.963554 90.858620,112.987831 
z"/>
<path fill="#F5B78D" opacity="1.000000" stroke="none" 
	d="
M151.509491,103.370926 
	C154.684174,104.778786 157.026093,106.598892 155.765366,109.980736 
	C154.216080,114.136650 150.316376,113.080666 147.144791,112.823273 
	C146.050659,112.734482 145.074585,111.191177 144.044586,110.312302 
	C144.332657,109.990547 144.620728,109.668793 144.908798,109.347038 
	C147.066422,109.842667 149.224045,110.338295 152.068405,110.991669 
	C150.731674,105.759453 142.262756,105.899010 146.034073,100.053329 
	C147.126984,98.359283 151.342438,98.503143 154.166840,98.242798 
	C154.775513,98.186691 155.558533,100.021889 156.616287,101.472954 
	C153.752808,101.166351 151.904922,100.968491 150.057037,100.770630 
	C150.429581,101.572243 150.802109,102.373856 151.509491,103.370926 
z"/>
<path fill="#F5B78D" opacity="1.000000" stroke="none" 
	d="
M201.167267,98.166100 
	C203.313660,98.030647 205.127930,98.030647 206.610931,98.030647 
	C207.119125,101.027596 207.585464,103.777817 208.051819,106.528038 
	C208.551636,106.562592 209.051453,106.597145 209.551270,106.631699 
	C210.196045,103.953194 210.840805,101.274681 211.570938,98.241486 
	C212.397232,98.241486 213.967361,98.241486 215.728729,98.241486 
	C213.755676,102.581635 212.010040,106.685074 210.000305,110.654808 
	C209.505142,111.632874 208.222076,112.557068 207.159866,112.757744 
	C206.627319,112.858345 205.485138,111.387962 205.121048,110.435936 
	C203.589218,106.430611 202.246857,102.352821 201.167267,98.166100 
z"/>
<path fill="#F5B68C" opacity="1.000000" stroke="none" 
	d="
M301.625244,101.727402 
	C299.036957,99.423332 297.983246,100.649956 297.829620,102.995529 
	C297.625641,106.109573 297.779327,109.247032 297.779327,112.699219 
	C296.423950,112.699219 294.529541,112.699219 292.489594,112.699219 
	C292.489594,107.911087 292.489594,103.248543 292.489594,98.020432 
	C295.292755,98.020432 298.683411,97.926407 302.060089,98.101669 
	C302.716583,98.135735 303.930725,99.397026 303.818878,99.780228 
	C303.582947,100.588310 302.639557,101.189857 301.625244,101.727402 
z"/>
<path fill="#F5B589" opacity="1.000000" stroke="none" 
	d="
M238.285889,112.128281 
	C236.573273,112.723274 234.805283,112.939751 232.476440,113.224899 
	C232.476440,106.021248 232.476440,99.225235 232.476440,92.271515 
	C233.463028,92.271515 235.037125,92.271515 236.579071,92.271515 
	C237.145416,98.951241 237.687973,105.350502 238.285889,112.128281 
z"/>
<path fill="#111111" opacity="1.000000" stroke="none" 
	d="
M324.071991,31.097027 
	C324.423676,23.758450 329.439362,28.437393 332.541718,26.720848 
	C332.541718,30.068850 332.541718,32.758671 332.541718,35.787636 
	C329.943420,35.787636 327.381683,35.787636 324.359802,35.787636 
	C324.265198,34.395298 324.168549,32.972878 324.071991,31.097027 
z"/>
<path fill="#111111" opacity="1.000000" stroke="none" 
	d="
M151.061371,69.538345 
	C149.979355,68.027649 148.797089,66.171295 147.883041,64.123558 
	C149.087875,65.685677 150.024506,67.439178 151.061371,69.538345 
z"/>
<path fill="#111111" opacity="1.000000" stroke="none" 
	d="
M148.492371,40.968071 
	C148.939743,39.084045 149.722717,37.104668 150.858887,35.105129 
	C150.417389,37.014217 149.622665,38.943466 148.492371,40.968071 
z"/>
<path fill="#111111" opacity="1.000000" stroke="none" 
	d="
M148.116531,61.752666 
	C147.496368,60.776386 147.039749,59.565910 146.865906,58.146072 
	C147.525787,59.130630 147.902939,60.324551 148.116531,61.752666 
z"/>
<path fill="#111111" opacity="1.000000" stroke="none" 
	d="
M147.438248,46.957443 
	C147.190720,45.753899 147.221695,44.447678 147.595551,43.079235 
	C147.864532,44.296265 147.790649,45.575516 147.438248,46.957443 
z"/>
<path fill="#111111" opacity="1.000000" stroke="none" 
	d="
M154.079193,72.623291 
	C153.160217,72.153961 152.117584,71.390839 151.097198,70.234955 
	C152.064819,70.671303 153.010178,71.500404 154.079193,72.623291 
z"/>
<path fill="#FAFAFA" opacity="1.000000" stroke="none" 
	d="
M234.841919,47.696236 
	C242.478409,43.683838 246.636734,46.065399 246.883453,54.208126 
	C246.983841,57.521145 247.033005,60.848724 246.841354,64.154373 
	C246.587341,68.535683 243.354782,71.767113 239.338226,71.980011 
	C234.611984,72.230522 232.750458,69.054848 232.238678,65.246361 
	C231.448090,59.363144 230.657990,53.316879 234.841919,47.696236 
z"/>
<path fill="#0D0D0D" opacity="1.000000" stroke="none" 
	d="
M233.811218,73.214668 
	C233.469559,74.228828 233.028244,74.901390 232.586914,75.573959 
	C232.120667,74.823318 231.654404,74.072685 231.188141,73.322060 
	C232.029282,73.172394 232.870407,73.022736 233.811218,73.214668 
z"/>
<path fill="#0D0D0D" opacity="1.000000" stroke="none" 
	d="
M227.507446,56.334450 
	C226.963516,55.989616 226.637329,55.429619 226.311127,54.869621 
	C226.590057,54.742107 226.868988,54.614594 227.147919,54.487083 
	C227.340347,55.031147 227.532776,55.575211 227.507446,56.334450 
z"/>
<path fill="#0D0D0D" opacity="1.000000" stroke="none" 
	d="
M230.606567,49.045498 
	C230.209686,49.287670 229.814865,49.285988 229.422256,49.255714 
	C229.411209,49.254864 229.423706,48.948807 229.425232,48.785065 
	C229.819809,48.789253 230.214371,48.793446 230.606567,49.045498 
z"/>
<path fill="#0C0C0C" opacity="1.000000" stroke="none" 
	d="
M267.278748,43.151680 
	C268.773407,44.312855 270.483948,45.335793 270.896698,46.740147 
	C272.985809,53.848484 274.735596,61.056488 276.612427,68.227440 
	C276.738098,68.707672 276.817566,69.261902 277.111725,69.625313 
	C278.321686,71.119987 280.750061,72.231247 278.825531,74.672638 
	C278.328308,75.303398 276.639252,75.932335 276.528503,75.785347 
	C275.393188,74.278687 274.136719,72.724327 273.545685,70.970436 
	C270.902222,63.125744 268.380524,55.236374 266.045990,47.295174 
	C265.698181,46.112106 266.582001,44.566975 267.278748,43.151680 
z"/>
<path fill="#0C0C0C" opacity="1.000000" stroke="none" 
	d="
M295.635742,69.338699 
	C293.953430,63.402866 292.448944,57.833271 290.870636,52.284664 
	C290.606720,51.356876 290.257355,50.146500 289.548706,49.701065 
	C284.291168,46.396290 288.328094,45.059101 291.268341,42.567871 
	C293.234680,49.034504 294.873535,54.975662 296.870911,60.793758 
	C298.145691,64.507080 300.172943,67.966454 301.379822,71.695992 
	C301.730103,72.778465 300.412659,74.400612 299.859741,75.775360 
	C298.911224,75.183220 297.609406,74.802528 297.098297,73.948586 
	C296.360870,72.716522 296.197296,71.140968 295.635742,69.338699 
z"/>
<path fill="#0C0C0C" opacity="1.000000" stroke="none" 
	d="
M313.481476,44.600334 
	C311.760986,45.016930 310.172363,45.107853 308.583740,45.198776 
	C308.644104,44.445915 308.704437,43.693058 308.764801,42.940197 
	C310.380981,43.385021 311.997162,43.829845 313.481476,44.600334 
z"/>
<path fill="#0C0C0C" opacity="1.000000" stroke="none" 
	d="
M307.111633,55.031315 
	C307.689941,53.563667 308.178406,52.446243 308.666870,51.328815 
	C309.092438,51.490845 309.517975,51.652878 309.943542,51.814907 
	C309.134827,54.100548 308.326080,56.386192 307.517365,58.671833 
	C307.169708,58.583511 306.822021,58.495190 306.474365,58.406868 
	C306.656830,57.398426 306.839325,56.389980 307.111633,55.031315 
z"/>
<path fill="#0C0C0C" opacity="1.000000" stroke="none" 
	d="
M303.903900,63.918396 
	C304.312897,63.176476 304.643311,62.741920 304.973694,62.307369 
	C305.236206,62.443317 305.498718,62.579266 305.761230,62.715214 
	C305.290924,64.041855 304.820618,65.368507 304.350311,66.695152 
	C304.023132,66.595963 303.695923,66.496773 303.368744,66.397591 
	C303.520935,65.673645 303.673096,64.949699 303.903900,63.918396 
z"/>
<path fill="#0D0D0D" opacity="1.000000" stroke="none" 
	d="
M166.424011,72.871521 
	C167.104233,67.254417 167.806168,62.010784 168.567352,56.324429 
	C169.502121,56.324429 171.378769,56.324429 173.097443,56.324429 
	C173.097443,62.758297 173.097443,68.960800 173.097443,75.876526 
	C170.454742,74.831024 168.450241,74.038002 166.424011,72.871521 
z"/>
<path fill="#0C0C0C" opacity="1.000000" stroke="none" 
	d="
M170.092010,34.962093 
	C168.651016,33.192581 167.422043,31.708271 166.193069,30.223963 
	C166.356049,29.774729 166.519028,29.325495 166.682007,28.876261 
	C168.391708,29.364332 170.101395,29.852406 171.811096,30.340477 
	C171.308731,31.976084 170.806381,33.611691 170.092010,34.962093 
z"/>
<path fill="#0C0C0C" opacity="1.000000" stroke="none" 
	d="
M159.098907,28.665716 
	C159.965836,28.330322 161.026382,28.208981 162.086945,28.087639 
	C162.089203,28.351683 162.091461,28.615725 162.093719,28.879768 
	C161.160004,28.879768 160.226273,28.879768 159.098907,28.665716 
z"/>
<path fill="#0C0C0C" opacity="1.000000" stroke="none" 
	d="
M345.963654,64.913048 
	C345.963593,57.508091 345.963593,50.590202 345.963593,43.346157 
	C348.171631,42.554592 349.966156,42.657635 350.104736,46.189888 
	C350.317749,51.619900 350.741577,57.041298 351.028290,62.468868 
	C351.259613,66.847908 351.420380,71.230675 351.621490,75.817780 
	C349.811981,75.817780 347.538269,75.817780 345.337097,75.817780 
	C345.545197,72.357903 345.754456,68.879013 345.963654,64.913048 
z"/>
<path fill="#0C0C0C" opacity="1.000000" stroke="none" 
	d="
M367.954895,65.709366 
	C367.626312,60.475807 367.347565,55.683563 366.916870,50.905018 
	C366.480347,46.061840 362.770599,45.112755 358.387451,44.699982 
	C365.762268,40.933762 370.838623,43.903862 371.056396,51.379360 
	C371.290924,59.429695 371.750824,67.473465 372.122833,75.752609 
	C370.782623,75.752609 368.381897,75.752609 365.957367,75.752609 
	C366.629089,72.498344 367.283569,69.327522 367.954895,65.709366 
z"/>
<path fill="#FAFAFA" opacity="1.000000" stroke="none" 
	d="
M56.921211,69.939453 
	C54.006851,63.371811 53.829647,56.913219 56.200115,50.742203 
	C57.017914,48.613243 60.137695,46.003506 62.143555,46.054752 
	C64.451172,46.113701 68.292297,48.580135 68.653572,50.523903 
	C69.680870,56.051147 70.221893,62.021622 69.197884,67.488632 
	C67.896004,74.439140 62.377247,75.370956 56.921211,69.939453 
z"/>
<path fill="#0D0D0D" opacity="1.000000" stroke="none" 
	d="
M47.999168,61.738213 
	C47.467747,53.795109 49.550789,47.638348 57.059628,44.074978 
	C50.269161,54.061939 50.994469,64.028038 56.687782,74.026115 
	C51.400810,73.945969 49.746498,71.673248 47.999168,61.738213 
z"/>
<path fill="#0C0C0C" opacity="1.000000" stroke="none" 
	d="
M69.327423,46.922401 
	C68.804871,46.088295 68.496552,45.533897 68.119713,44.856312 
	C72.632462,45.187824 76.868614,49.498459 76.546738,53.413033 
	C76.486259,54.148640 75.490608,55.348160 74.890091,55.370869 
	C74.005531,55.404312 72.642715,54.800476 72.268639,54.067463 
	C71.154282,51.883812 70.422745,49.504795 69.327423,46.922401 
z"/>
<path fill="#0C0C0C" opacity="1.000000" stroke="none" 
	d="
M71.690331,67.485970 
	C72.527710,65.672752 73.228310,64.221893 73.928902,62.771042 
	C77.450859,68.226196 74.371742,70.491745 70.293373,72.368317 
	C70.713432,70.861656 71.133492,69.354996 71.690331,67.485970 
z"/>
<path fill="#FAFAFA" opacity="1.000000" stroke="none" 
	d="
M194.354370,70.624573 
	C190.898285,64.028336 190.819153,57.398140 193.121262,51.044338 
	C193.934570,48.799637 197.159241,46.106087 199.343033,46.052235 
	C201.529022,45.998325 205.364456,48.706284 205.717209,50.693504 
	C206.699539,56.227413 207.143723,62.180180 206.133484,67.660240 
	C204.948761,74.086823 200.143707,75.062775 194.354370,70.624573 
z"/>
<path fill="#0D0D0D" opacity="1.000000" stroke="none" 
	d="
M190.550079,50.987690 
	C188.885620,62.989395 189.215591,65.321404 193.607773,74.169724 
	C188.340118,73.617424 185.648056,69.966148 185.011002,62.509834 
	C184.186691,52.861721 187.387390,46.424351 194.417480,44.206268 
	C193.097733,46.499435 191.909653,48.563797 190.550079,50.987690 
z"/>
<path fill="#0C0C0C" opacity="1.000000" stroke="none" 
	d="
M213.649490,53.874081 
	C211.972000,55.795216 210.343475,56.834393 209.123978,53.811512 
	C207.908142,50.797680 206.733536,47.767220 205.303970,44.143612 
	C210.638153,45.372986 212.486938,49.133335 213.649490,53.874081 
z"/>
<path fill="#0C0C0C" opacity="1.000000" stroke="none" 
	d="
M210.359558,71.139427 
	C209.336227,71.844406 208.573486,72.290909 206.503555,73.502655 
	C208.222137,69.013344 209.420486,65.882980 210.618851,62.752621 
	C213.850189,66.209778 213.132584,68.693260 210.359558,71.139427 
z"/>
<path fill="#0D0D0D" opacity="1.000000" stroke="none" 
	d="
M93.139755,54.944557 
	C92.567947,55.231167 91.672562,55.374359 91.472488,55.825745 
	C88.053215,63.539879 93.917343,73.238884 102.394035,74.034134 
	C103.101837,74.100540 103.785156,74.427910 104.972221,74.780128 
	C97.773582,77.386841 91.552574,75.364777 88.902550,69.669701 
	C85.461540,62.274750 86.302254,49.455460 93.342079,46.289261 
	C93.074745,48.510693 92.825546,50.581383 92.800705,53.165466 
	C93.063286,54.100754 93.101524,54.522655 93.139755,54.944557 
z"/>
<path fill="#FBFBFB" opacity="1.000000" stroke="none" 
	d="
M93.596176,54.966000 
	C93.101524,54.522655 93.063286,54.100754 93.084351,53.365372 
	C94.984352,50.723087 96.396606,47.112988 98.752609,46.325150 
	C104.093575,44.539165 106.291542,47.195919 106.870316,54.987442 
	C102.581078,54.987442 98.316833,54.987442 93.596176,54.966000 
z"/>
<path fill="#0D0D0D" opacity="1.000000" stroke="none" 
	d="
M112.431892,49.935242 
	C113.088707,52.490234 113.575790,54.699780 114.192314,57.496490 
	C107.204994,57.496490 100.733551,57.496490 94.262108,57.496490 
	C94.243889,57.331429 94.225670,57.166370 94.207451,57.001308 
	C97.315117,57.001308 100.422806,57.010067 103.530434,56.999367 
	C108.917549,56.980812 110.726868,54.155689 108.442863,49.213383 
	C107.775002,47.768188 106.844627,46.444309 106.034584,45.064823 
	C106.427437,44.690826 106.820297,44.316826 107.213150,43.942829 
	C108.896156,45.825150 110.579163,47.707466 112.431892,49.935242 
z"/>
<path fill="#0D0D0D" opacity="1.000000" stroke="none" 
	d="
M31.371315,84.019226 
	C29.854258,85.536179 28.571043,86.750626 27.127441,88.116875 
	C30.896749,70.247650 28.145510,52.636131 28.955639,35.162197 
	C29.038742,33.369736 28.676153,31.556608 28.504019,29.563660 
	C32.524216,28.062887 34.140251,29.228867 34.074604,33.718216 
	C33.894573,46.030468 34.218491,58.352364 33.902256,70.659119 
	C33.789982,75.028450 32.407684,79.365135 31.371315,84.019226 
z"/>
<path fill="#0D0D0D" opacity="1.000000" stroke="none" 
	d="
M23.532581,88.552139 
	C23.475092,88.587029 23.590073,88.517242 23.532581,88.552139 
z"/>
<path fill="#FEF9F6" opacity="1.000000" stroke="none" 
	d="
M171.116837,99.262543 
	C170.822052,95.532875 172.244141,93.606430 175.336121,95.404922 
	C179.394745,97.765656 178.931595,101.943161 178.144714,105.939095 
	C177.430695,109.565125 175.527176,111.431694 171.116440,110.525429 
	C171.116440,106.898895 171.116440,103.309616 171.116837,99.262543 
z"/>
<path fill="#FFFDFC" opacity="1.000000" stroke="none" 
	d="
M268.367096,109.266647 
	C266.012268,112.136131 264.321808,111.551659 264.048279,108.504311 
	C263.823120,105.995850 264.475677,103.395103 264.913300,100.865372 
	C264.949707,100.654915 266.954865,100.533775 266.971039,100.607368 
	C267.574768,103.352791 268.051910,106.126053 268.367096,109.266647 
z"/>
<path fill="#FFFDFC" opacity="1.000000" stroke="none" 
	d="
M251.025879,107.637955 
	C250.110672,109.021263 249.215317,109.976555 248.319977,110.931839 
	C247.572968,109.946915 246.196487,108.958412 246.202072,107.977783 
	C246.216400,105.467552 246.793167,102.949562 247.324600,100.473221 
	C247.369034,100.266197 249.394226,100.170723 249.437683,100.324104 
	C250.079361,102.589455 250.541214,104.905739 251.025879,107.637955 
z"/>
</svg>